<svg height="512" viewBox="0 0 64 64" width="512" xmlns="http://www.w3.org/2000/svg"><g id="Filled_outline" data-name="Filled outline"><path d="m24 26h-13a64.475 64.475 0 0 1 -8 31h29a64.475 64.475 0 0 1 -8-31z" fill="#50b4f8"/><path d="m41 30h-13c0 18-6 27-6 27h25s-6-9-6-27z" fill="#4481c3"/><path d="m37 45h24v12h-24z" fill="#394d5c"/><path d="m19.578 15.043a3.984 3.984 0 1 1 6.922-3.943 3.968 3.968 0 0 1 6.712-.465 4.987 4.987 0 0 1 9.788 1.365 4.944 4.944 0 0 1 -.059.587 3.9 3.9 0 0 1 4.1-.009 4.009 4.009 0 1 1 1.914 3.844 3.989 3.989 0 0 1 -7.955-.422.242.242 0 0 1 0-.025 4.954 4.954 0 0 1 -3 1.025c-.047 0-.091-.013-.137-.014a3.983 3.983 0 0 1 -7.726 0c-.046 0-.09.014-.137.014a3.982 3.982 0 0 1 -3.5-2.1 3.982 3.982 0 0 1 -3.5 2.1c-.065 0-.125-.016-.19-.019a2.969 2.969 0 0 1 .19 1.019 3 3 0 1 1 -3.422-2.957z" fill="#aabece"/><path d="m53 51h4v6h-4z" fill="#fcf05a"/><path d="m24.136 30c-.085-1.3-.136-2.635-.136-4h-13c0 1.365-.051 2.7-.136 4z" fill="#dd3e46"/><path d="m41.113 34c-.066-1.286-.113-2.606-.113-4h-13c0 1.394-.047 2.714-.113 4z" fill="#dd3e46"/><path d="m55 31h4v14h-4z" fill="#50b4f8"/><path d="m47 31h4v14h-4z" fill="#50b4f8"/><path d="m47 31h4v4h-4z" fill="#dd3e46"/><path d="m55 31h4v4h-4z" fill="#dd3e46"/><path d="m47 35h4v4h-4z" fill="#e97424"/><path d="m55 35h4v4h-4z" fill="#e97424"/><path d="m61 44h-1v-13a1 1 0 0 0 -1-1h-4a1 1 0 0 0 -1 1v13h-2v-13a1 1 0 0 0 -1-1h-4a1 1 0 0 0 -1 1v13h-2.613a68.741 68.741 0 0 1 -1.387-14 1 1 0 0 0 -1-1h-13a1 1 0 0 0 -1 1 71.932 71.932 0 0 1 -.573 9.18 62.527 62.527 0 0 1 -1.427-13.18 1 1 0 0 0 -1-1h-13a1 1 0 0 0 -1 1 64.065 64.065 0 0 1 -7.852 30.477 1 1 0 0 0 .852 1.523h58a1 1 0 0 0 1-1v-12a1 1 0 0 0 -1-1zm-5-12h2v2h-2zm0 4h2v2h-2zm0 4h2v4h-2zm-8-8h2v2h-2zm0 4h2v2h-2zm0 4h2v4h-2zm-19.006-9h11.012c.008.675.047 1.334.072 2h-11.139c.025-.656.047-1.317.055-2zm-.158 4h11.329c.109 1.7.291 3.365.513 5h-12.327c.21-1.558.373-3.232.485-5zm-16.844-8h11.016c.01.666.035 1.333.067 2h-11.156c.031-.661.062-1.323.073-2zm-.2 4h11.413q.239 3 .766 6h-12.925c.329-1.9.578-3.911.743-6zm9.645 25h-16.729a65.127 65.127 0 0 0 5.956-17h13.687q.527 2.553 1.252 5.09a42.246 42.246 0 0 1 -4.169 11.91zm14.563-11v11h-12.283a48.04 48.04 0 0 0 4.334-14h12.911c.114.678.253 1.337.386 2h-4.348a1 1 0 0 0 -1 1zm20 11h-2v-4h2zm4 0h-2v-5a1 1 0 0 0 -1-1h-4a1 1 0 0 0 -1 1v5h-14v-10h22z"/><path d="m16 18a4 4 0 0 0 8 0c0-.034 0-.068 0-.1a4.991 4.991 0 0 0 2.5-1.349 4.971 4.971 0 0 0 2.915 1.416 4.98 4.98 0 0 0 9.167.006 5.849 5.849 0 0 0 1.665-.417 4.989 4.989 0 0 0 9.4.251 4.834 4.834 0 0 0 1.353.193 5 5 0 1 0 -4.646-6.8 4.834 4.834 0 0 0 -2.418-.076 5.983 5.983 0 0 0 -11.058-2.2 4.959 4.959 0 0 0 -6.378.534 4.984 4.984 0 0 0 -8.5 3.542 4.871 4.871 0 0 0 .218 1.434 4.008 4.008 0 0 0 -2.218 3.566zm3.719-1.967a1 1 0 0 0 .717-1.505 2.931 2.931 0 0 1 -.436-1.528 2.987 2.987 0 0 1 5.622-1.421 1.04 1.04 0 0 0 1.756 0 2.968 2.968 0 0 1 5.029-.349 1 1 0 0 0 1.767-.32 3.987 3.987 0 0 1 7.826 1.09 2.245 2.245 0 0 1 -.03.3l-.023.169a1 1 0 0 0 1.511.976 2.915 2.915 0 0 1 3.071-.007 1 1 0 0 0 1.508-.752 2.99 2.99 0 1 1 2.963 3.314 2.952 2.952 0 0 1 -1.53-.437 1 1 0 0 0 -1.507.754 2.989 2.989 0 0 1 -5.963-.273c0-.023 0-.047 0-.069a1 1 0 0 0 -1.6-.8 4.1 4.1 0 0 1 -1.406.686 5 5 0 0 0 -1.686-3.613l-1.323 1.5a2.96 2.96 0 0 1 .929 2.945c0 .016-.014.028-.018.044a2.984 2.984 0 0 1 -5.79 0 .992.992 0 0 0 -1-.752c-.058 0-.116.008-.1.013a2.994 2.994 0 0 1 -2.622-1.579 1.04 1.04 0 0 0 -1.756 0 2.981 2.981 0 0 1 -2.592 1.581c-.031 0-.148-.017-.181-.018a.986.986 0 0 0 -.85.407 1 1 0 0 0 -.134.934 1.958 1.958 0 0 1 .129.677 2 2 0 1 1 -2.281-1.967z"/><path d="m32 14h2v2h-2z"/><path d="m40 48h2v2h-2z"/><path d="m44 48h2v2h-2z"/><path d="m44 52h2v2h-2z"/><path d="m48 48h2v2h-2z"/><path d="m48 52h2v2h-2z"/><path d="m40 52h2v2h-2z"/><path d="m9 52h2v2h-2z"/><path d="m13 52h2v2h-2z"/></g></svg>